# AST/ASF file generated using VICON BodyLanguage
# -----------------------------------------------
:version 1.10
:name VICON
:units
  mass 1.0
  length 0.45
  angle deg
:documentation
   .ast/.asf automatically generated from VICON data using
   VICON BodyBuilder and BodyLanguage model FoxedUp or BRILLIANT.MOD
:root
   order TX TY TZ RX RY RZ
   axis XYZ
   position 0 0 0  
   orientation 0 0 0 
:bonedata
  begin
     id 1 
     name lhipjoint
     direction 0.541323 -0.757556 0.364798 
     length 2.47576 
     axis 0 0 0  XYZ
  end
  begin
     id 2 
     name lfemur
     direction 0.34202 -0.939693 0  
     length 7.46493  
     axis 0 0 20  XYZ
    dof rx ry rz
    limits (-160.0 20.0)
           (-70.0 70.0)
           (-60.0 70.0)
  end
  begin
     id 3 
     name ltibia
     direction 0.34202 -0.939693 0   
     length 7.73805   
     axis 0 0 20   XYZ
    dof rx
    limits (-10.0 170.0)
  end
  begin
     id 4 
     name lfoot
     direction 0.107174 -0.294458 0.949636   
     length 2.25864   
     axis -90 7.62852e-016 20   XYZ
    dof rx rz
    limits (-45.0 90.0)
           (-70.0 20.0)
  end
  begin
     id 5 
     name ltoes
     direction 1.53606e-011 -4.21934e-011 1   
     length 1.12451   
     axis -90 7.62852e-016 20   XYZ
    dof rx
    limits (-90.0 20.0)
  end
  begin
     id 6 
     name rhipjoint
     direction -0.524745 -0.766967 0.36933   
     length 2.44538  
     axis 0 0 0  XYZ 
  end
  begin
     id 7 
     name rfemur
     direction -0.34202 -0.939693 0   
     length 7.61604   
     axis 0 0 -20   XYZ
    dof rx ry rz
    limits (-160.0 20.0)
           (-70.0 70.0)
           (-70.0 60.0)
  end
  begin
     id 8 
     name rtibia
     direction -0.34202 -0.939693 0   
     length 7.61056   
     axis 0 0 -20   XYZ
    dof rx
    limits (-10.0 170.0)
 end
 begin
     id 9 
     name rfoot
     direction -0.12616 -0.346623 0.929482   
     length 2.46372  
     axis -90 -7.62852e-016 -20   XYZ
    dof rx rz
    limits (-45.0 90.0)
           (-20.0 70.0)
  end
  begin
     id 10 
     name rtoes
     direction -1.53531e-011 -4.22004e-011 1   
     length 1.21611   
     axis -90 -7.62852e-016 -20   XYZ
    dof rx
    limits (-90.0 20.0)
  end
  begin
     id 11 
     name lowerback
     direction -0.000778023 0.997293 -0.0735223   
     length 2.06139   
     axis 0 0 0   XYZ
    dof rx ry rz
    limits (-20.0 45.0)
           (-30.0 30.0)
           (-30.0 30.0)
  end
  begin
     id 12 
     name upperback
     direction 0.0222598 0.999722 -0.0078355   
     length 2.06383   
     axis 0 0 0   XYZ
    dof rx ry rz
    limits (-20.0 45.0)
           (-30.0 30.0)
           (-30.0 30.0)
  end
  begin
     id 13 
     name thorax
     direction 0.0219654 0.999405 0.0265994   
     length 2.07163   
     axis 0 0 0   XYZ
    dof rx ry rz
    limits (-20.0 45.0)
           (-30.0 30.0)
           (-30.0 30.0)
  end
  begin
     id 14 
     name lowerneck
     direction 0.0213282 0.988147 0.15202   
     length 1.75969   
     axis 0 0 0   XYZ
    dof rx ry rz
    limits (-20.0 45.0)
           (-30.0 30.0)
           (-30.0 30.0)
  end
  begin
     id 15 
     name upperneck
     direction -0.0546456 0.982624 -0.177379   
     length 1.79244   
     axis 0 0 0   XYZ
    dof rx ry rz
    limits (-20.0 45.0)
           (-30.0 30.0)
           (-30.0 30.0)
  end
  begin
     id 16
     name head
     direction -0.0199987 0.996855 -0.076686  
     length 1.80555  
     axis 0 0 0   XYZ
    dof rx ry rz
    limits (-20.0 45.0)
           (-30.0 30.0)
           (-30.0 30.0)
  end
  begin
     id 17 
     name lclavicle
     direction 0.929565 0.363219 -0.063096  
     length 3.55722  
     axis 0 0 0   XYZ
    dof ry rz
    limits (-20.0 10.0)
           (0.0 20.0)
  end
  begin
     id 18 
     name lhumerus
     direction 1 -4.48993e-011 -2.36203e-027   
     length 4.92785   
     axis 180 -30 -90   XYZ
    dof rx ry rz
    limits (-60.0 90.0)
           (-90.0 90.0)
           (-90.0 90.0)
  end
  begin
     id 19
     name lradius
     direction 1 -4.48947e-011 2.02997e-027   
     length 3.44052   
     axis 180 -30 -90   XYZ
    dof rx
    limits (-10.0 170.0)
  end
  begin
     id 20
     name lwrist
     direction 1 -4.48962e-011 1.45991e-027   
     length 1.72026   
     axis 1.49639e-024 90 90   XYZ
    dof ry
    limits (-180.0 0.0)
 end
  begin
     id 21 
     name lhand
     direction 1 -4.48984e-011 2.91906e-027   
     length 0.654326   
     axis -1.863e-015 90 90   XYZ
    dof rx rz
    limits (-90.0 90.0)
           (-45.0 45.0)
  end
  begin
     id 22 
     name lfingers
     direction 1 -4.48961e-011 5.83968e-027   
     length 0.527534   
     axis -3.72598e-015 90 90   XYZ
    dof rx
    limits (0.0 90.0)
  end
  begin
     id 23
     name lthumb
     direction 0.707107 -6.34963e-011 0.707107   
     length 0.757437   
     axis -90 45 -6.68868e-015   XYZ
    dof rx rz
    limits (-45.0 45.0)
           (-45.0 45.0)
  end
  begin
     id 24 
     name rclavicle
     direction -0.902944 0.422599 -0.0781198   
     length 3.54432  
     axis 0 0 0   XYZ 
    dof ry rz
    limits (-10.0 20.0)
           (-20.0 0.0)
  end
  begin
     id 25 
     name rhumerus
     direction -1 -4.48953e-011 -4.75835e-028  
     length 5.09181   
     axis 180 30 90   XYZ
    dof rx ry rz
    limits (-90.0 60.0)
           (-90.0 90.0)
           (-90.0 90.0)
  end
  begin
     id 26 
     name rradius
     direction -1 -4.48986e-011 -3.25889e-027   
     length 3.49865   
     axis 180 30 90   XYZ
    dof rx
    limits (-10.0 170.0)
  end
  begin
     id 27 
     name rwrist
     direction -1 -4.48963e-011 1.45989e-027   
     length 1.74933   
     axis 1.49639e-024 -90 -90   XYZ
    dof ry
    limits (-180.0 0.0)
  end
  begin
     id 28
     name rhand
     direction -1 -4.49003e-011 2.91844e-027   
     length 0.66641   
     axis -1.863e-015 -90 -90   XYZ
    dof rx rz
    limits (-90.0 90.0)
           (-45.0 45.0)
  end
  begin
     id 29
     name rfingers
     direction -1 -4.48973e-011 5.83886e-027   
     length 0.537277   
     axis -3.72598e-015 -90 -90   XYZ
    dof rx
    limits (0.0 90.0)
  end
  begin
     id 30
     name rthumb
     direction -0.707107 -6.34976e-011 0.707107   
     length 0.771425   
     axis -90 -45 6.68868e-015   XYZ
    dof rx rz
    limits (-45.0 45.0)
           (-45.0 45.0)
  end
:hierarchy
  begin
    root lhipjoint rhipjoint lowerback
    lhipjoint lfemur
    lfemur ltibia
    ltibia lfoot
    lfoot ltoes
    rhipjoint rfemur
    rfemur rtibia
    rtibia rfoot
    rfoot rtoes
    lowerback upperback
    upperback thorax
    thorax lowerneck lclavicle rclavicle
    lowerneck upperneck
    upperneck head
    lclavicle lhumerus
    lhumerus lradius
    lradius lwrist
    lwrist lhand lthumb
    lhand lfingers
    rclavicle rhumerus
    rhumerus rradius
    rradius rwrist
    rwrist rhand rthumb
    rhand rfingers
  end

#!OML:ASF H:\LiuWeirdWalks\Patient Classification 1\Patient 1\Session 1\male.ASF
:FULLY-SPECIFIED
:DEGREES
45
root -0.224794 17.987 -22.8673 0.541182 46.4784 -1.25329
lowerback 5.15973 9.42106 4.74407
upperback -1.155 12.8742 -0.0493684
thorax -3.00448 6.3215 -3.4935
lowerneck 5.37298 20.0283 17.8432
upperneck 7.97811 28.9563 -13.1318
head 6.01889 14.593 -4.4983
rclavicle 6.82608e-014 1.03368e-014
rhumerus -36.2044 -19.9202 -70.9335
rradius 25.6185
rwrist -6.45661
rhand -14.3114 -0.929512
rfingers 7.12502
rthumb 11.8288 -30.5754
lclavicle 6.82608e-014 1.03368e-014
lhumerus -36.0165 0.608514 80.0209
lradius 30.2938
lwrist 7.06094
lhand -8.97428 1.84062
lfingers 7.12502
lthumb 16.9712 31.1192
rfemur 2.7815 -15.1416 22.0615
rtibia 21.3588
rfoot -19.5737 -42.7934
rtoes 2.83155
lfemur -14.9353 -15.8922 -13.4247
ltibia 26.4435
lfoot -12.2187 -8.21261
ltoes -11.4973
46
root -0.224803 17.9865 -22.8661 0.520518 46.4733 -1.26974
lowerback 5.16245 9.43095 4.73101
upperback -1.15887 12.8868 -0.0509111
thorax -3.01138 6.3277 -3.48995
lowerneck 5.33402 20.0012 17.8764
upperneck 8.02612 28.9244 -13.1533
head 6.04348 14.5758 -4.50546
rclavicle 1.31369e-013 0
rhumerus -36.1357 -19.8507 -70.9741
rradius 25.6267
rwrist -6.4885
rhand -14.3631 -0.944973
rfingers 7.12502
rthumb 11.779 -30.5937
lclavicle 1.31369e-013 0
lhumerus -36.0355 0.57906 80.0034
lradius 30.2851
lwrist 7.06959
lhand -9.03331 1.90576
lfingers 7.12502
lthumb 16.9144 31.1892
rfemur 2.80122 -15.1329 22.0744
rtibia 21.3448
rfoot -19.5761 -42.7972
rtoes 2.83219
lfemur -14.9255 -15.9083 -13.414
ltibia 26.4537
lfoot -12.2288 -8.17938
ltoes -11.5175
47
root -0.224538 17.9864 -22.8663 0.514537 46.4514 -1.28345
lowerback 5.16287 9.44337 4.73089
upperback -1.16616 12.9035 -0.0553142
thorax -3.0168 6.33569 -3.49573
lowerneck 5.30246 19.9754 17.9134
upperneck 8.07099 28.8971 -13.1863
head 6.06893 14.561 -4.51628
rclavicle -1.41895e-013 -4.77083e-015
rhumerus -36.0741 -19.7689 -71.0156
rradius 25.6463
rwrist -6.51296
rhand -14.427 -0.941288
rfingers 7.12502
rthumb 11.7174 -30.5936
lclavicle -1.41895e-013 -4.77083e-015
lhumerus -36.0532 0.563566 79.9835
lradius 30.2735
lwrist 7.07464
lhand -9.08109 1.95805
lfingers 7.12502
lthumb 16.8684 31.2454
rfemur 2.79703 -15.1352 22.0784
rtibia 21.3409
rfoot -19.5595 -42.7744
rtoes 2.8268
lfemur -14.9293 -15.9301 -13.4058
ltibia 26.4617
lfoot -12.2297 -8.12317
ltoes -11.5434
48
root -0.223946 17.9868 -22.8679 0.519358 46.4092 -1.29998
lowerback 5.16228 9.46284 4.75077
upperback -1.18016 12.9309 -0.0669388
thorax -3.0218 6.34848 -3.51951
lowerneck 5.28551 19.9498 17.9587
upperneck 8.09628 28.8706 -13.2251
head 6.08807 14.5474 -4.53178
rclavicle -3.78933e-014 -1.03368e-014
rhumerus -36.038 -19.698 -71.0557
rradius 25.686
rwrist -6.51374
rhand -14.4919 -0.931835
rfingers 7.12502
rthumb 11.6548 -30.5877
lclavicle -3.78933e-014 -1.03368e-014
lhumerus -36.0671 0.556807 79.9549
lradius 30.2562
lwrist 7.07741
lhand -9.10003 1.98453
lfingers 7.12502
lthumb 16.8501 31.2735
rfemur 2.76816 -15.1449 22.0782
rtibia 21.3461
rfoot -19.5166 -42.7293
rtoes 2.81173
lfemur -14.9459 -15.9582 -13.3954
ltibia 26.4678
lfoot -12.2223 -8.04088
ltoes -11.5718
49
root -0.223207 17.9875 -22.8701 0.535075 46.3566 -1.31338
lowerback 5.16028 9.48628 4.77781
upperback -1.19948 12.964 -0.0820722
thorax -3.02868 6.36382 -3.55082
lowerneck 5.28976 19.9234 18.0171
upperneck 8.1036 28.8453 -13.2724
head 6.10155 14.5355 -4.55372
rclavicle -2.54693e-016 -4.37326e-015
rhumerus -36.0127 -19.624 -71.092
rradius 25.7384
rwrist -6.54299
rhand -14.5453 -0.916199
rfingers 7.12502
rthumb 11.6033 -30.575
lclavicle -2.54693e-016 -4.37326e-015
lhumerus -36.0797 0.560481 79.9206
lradius 30.2326
lwrist 7.07442
lhand -9.10305 1.99687
lfingers 7.12502
lthumb 16.8472 31.286
rfemur 2.72375 -15.1626 22.0721
rtibia 21.3578
rfoot -19.4662 -42.6661
rtoes 2.79396
lfemur -14.9707 -15.9862 -13.3869
ltibia 26.4712
lfoot -12.2099 -7.94755
ltoes -11.6075
50
root -0.22255 17.9882 -22.8722 0.552469 46.3065 -1.32453
lowerback 5.15514 9.50487 4.79926
upperback -1.21557 12.9901 -0.0931029
thorax -3.03319 6.37597 -3.57411
lowerneck 5.29864 19.9063 18.0612
upperneck 8.0976 28.8303 -13.3145
head 6.10878 14.5287 -4.57249
rclavicle 7.55382e-014 -8.74653e-015
rhumerus -35.988 -19.5466 -71.1282
rradius 25.8016
rwrist -6.57497
rhand -14.593 -0.884283
rfingers 7.12502
rthumb 11.5573 -30.5456
lclavicle 7.55382e-014 -8.74653e-015
lhumerus -36.0854 0.597423 79.8772
lradius 30.2
lwrist 7.05575
lhand -9.08084 1.98663
lfingers 7.12502
lthumb 16.8686 31.274
rfemur 2.67802 -15.1783 22.066
rtibia 21.3718
rfoot -19.4146 -42.6084
rtoes 2.77459
lfemur -14.9946 -16.0034 -13.3793
ltibia 26.4717
lfoot -12.1976 -7.8696
ltoes -11.6447
51
root -0.222114 17.9886 -22.8735 0.569389 46.2703 -1.32713
lowerback 5.15281 9.52583 4.80681
upperback -1.23319 13.0186 -0.107283
thorax -3.04287 6.38932 -3.59439
lowerneck 5.30559 19.8829 18.1257
upperneck 8.09839 28.807 -13.3515
head 6.11926 14.5183 -4.59248
rclavicle -1.24992e-013 -1.35174e-014
rhumerus -35.9853 -19.4988 -71.153
rradius 25.8743
rwrist -6.59993
rhand -14.6189 -0.854032
rfingers 7.12502
rthumb 11.5323 -30.5168
lclavicle -1.24992e-013 -1.35174e-014
lhumerus -36.0869 0.611569 79.833
lradius 30.1647
lwrist 7.04796
lhand -9.05236 1.97044
lfingers 7.12502
lthumb 16.896 31.2555
rfemur 2.64456 -15.1935 22.0573
rtibia 21.3838
rfoot -19.3797 -42.5632
rtoes 2.76154
lfemur -15.0095 -16.0196 -13.3772
ltibia 26.4689
lfoot -12.1907 -7.8084
ltoes -11.6748
52
root -0.22196 17.9888 -22.8738 0.58331 46.249 -1.32214
lowerback 5.14421 9.53068 4.78999
upperback -1.23915 13.0238 -0.106448
thorax -3.0477 6.39198 -3.58449
lowerneck 5.30647 19.8759 18.1541
upperneck 8.10351 28.8039 -13.3804
head 6.1288 14.5167 -4.60296
rclavicle -4.75313e-014 -7.55382e-015
rhumerus -35.9606 -19.424 -71.1781
rradius 25.948
rwrist -6.63049
rhand -14.605 -0.835458
rfingers 7.12502
rthumb 11.5457 -30.4974
lclavicle -4.75313e-014 -7.55382e-015
lhumerus -36.0897 0.671164 79.7854
lradius 30.1299
lwrist 7.0298
lhand -9.02752 1.95126
lfingers 7.12502
lthumb 16.9199 31.2342
rfemur 2.62672 -15.2037 22.0476
rtibia 21.3911
rfoot -19.3575 -42.5371
rtoes 2.7488
lfemur -15.0139 -16.0326 -13.3803
ltibia 26.4635
lfoot -12.1883 -7.76706
ltoes -11.6976
53
root -0.222192 17.9885 -22.8727 0.589932 46.2485 -1.31253
lowerback 5.1288 9.51818 4.74658
upperback -1.23258 13.0039 -0.088955
thorax -3.0475 6.38315 -3.54141
lowerneck 5.30569 19.8827 18.1531
upperneck 8.10939 28.8188 -13.4091
head 6.13742 14.5233 -4.60757
rclavicle -6.06883e-014 3.97569e-016
rhumerus -35.9099 -19.3123 -71.2094
rradius 26.0111
rwrist -6.64237
rhand -14.6014 -0.81765
rfingers 7.12502
rthumb 11.5492 -30.4794
lclavicle -6.06883e-014 3.97569e-016
lhumerus -36.0945 0.766706 79.739
lradius 30.0973
lwrist 7.006
lhand -9.01075 1.92759
lfingers 7.12502
lthumb 16.9361 31.2092
rfemur 2.62949 -15.2089 22.0414
rtibia 21.393
rfoot -19.363 -42.5313
rtoes 2.74811
lfemur -15.0063 -16.0461 -13.3852
ltibia 26.4566
lfoot -12.1913 -7.74962
ltoes -11.7064
54
root -0.222422 17.9884 -22.8719 0.594224 46.2479 -1.30799
lowerback 5.11521 9.50811 4.71291
upperback -1.22951 12.9879 -0.0770475
thorax -3.04817 6.37596 -3.50954
lowerneck 5.30413 19.8877 18.1656
upperneck 8.1178 28.8318 -13.4381
head 6.14866 14.5292 -4.61352
rclavicle -2.10588e-014 -1.98785e-015
rhumerus -35.8555 -19.2032 -71.2424
rradius 26.0665
rwrist -6.67067
rhand -14.6018 -0.806156
rfingers 7.12502
rthumb 11.5488 -30.468
lclavicle -2.10588e-014 -1.98785e-015
lhumerus -36.0952 0.862282 79.675
lradius 30.0503
lwrist 6.90813
lhand -8.97628 1.86364
lfingers 7.12502
lthumb 16.9693 31.1424
rfemur 2.63302 -15.2123 22.0396
rtibia 21.389
rfoot -19.3658 -42.5279
rtoes 2.75139
lfemur -15.0009 -16.0536 -13.3859
ltibia 26.4499
lfoot -12.1952 -7.73902
ltoes -11.7082
55
root -0.22278 17.9883 -22.871 0.596916 46.2471 -1.30706
lowerback 5.1064 9.50306 4.68882
upperback -1.23196 12.9794 -0.0736696
thorax -3.05255 6.37203 -3.49262
lowerneck 5.30002 19.8887 18.1927
upperneck 8.13329 28.8396 -13.462
head 6.163 14.5327 -4.6196
rclavicle 1.17149e-013 -4.77083e-015
rhumerus -35.8127 -19.1121 -71.2759
rradius 26.1199
rwrist -6.70151
rhand -14.6174 -0.803037
rfingers 7.12502
rthumb 11.5338 -30.4657
lclavicle 1.17149e-013 -4.77083e-015
lhumerus -36.0886 0.952348 79.5936
lradius 29.9855
lwrist 6.7379
lhand -8.93239 1.76803
lfingers 7.12502
lthumb 17.0115 31.0431
rfemur 2.63751 -15.211 22.0429
rtibia 21.3803
rfoot -19.3705 -42.5272
rtoes 2.75901
lfemur -14.9979 -16.0451 -13.3831
ltibia 26.4443
lfoot -12.2015 -7.74581
ltoes -11.6961
56
root -0.223194 17.9882 -22.8701 0.593611 46.2454 -1.3146
lowerback 5.09963 9.49892 4.67684
upperback -1.2351 12.9729 -0.0738703
thorax -3.05516 6.36889 -3.48574
lowerneck 5.29421 19.8925 18.2155
upperneck 8.14379 28.8498 -13.4834
head 6.17538 14.5372 -4.62426
rclavicle 7.49014e-014 -3.97569e-015
rhumerus -35.7681 -19.0281 -71.3128
rradius 26.1687
rwrist -6.73107
rhand -14.647 -0.820819
rfingers 7.12502
rthumb 11.5052 -30.4851
lclavicle 7.49014e-014 -3.97569e-015
lhumerus -36.0689 1.06877 79.489
lradius 29.8984
lwrist 6.4857
lhand -8.84966 1.62098
lfingers 7.12502
lthumb 17.0911 30.8892
rfemur 2.6429 -15.2062 22.0534
rtibia 21.3681
rfoot -19.3736 -42.5295
rtoes 2.76989
lfemur -14.9968 -16.0243 -13.3737
ltibia 26.4407
lfoot -12.2117 -7.76541
ltoes -11.6807
57
root -0.223644 17.9883 -22.8694 0.589236 46.242 -1.32468
lowerback 5.09737 9.50247 4.67257
upperback -1.24385 12.9773 -0.0806955
thorax -3.06199 6.37078 -3.4911
lowerneck 5.28652 19.8919 18.2446
upperneck 8.163 28.8539 -13.498
head 6.18972 14.5389 -4.62808
rclavicle -6.42509e-014 -5.96354e-015
rhumerus -35.734 -18.9648 -71.3402
rradius 26.2202
rwrist -6.80147
rhand -14.6859 -0.836889
rfingers 7.12502
rthumb 11.4677 -30.5032
lclavicle -6.42509e-014 -5.96354e-015
lhumerus -36.0424 1.17366 79.3784
lradius 29.8007
lwrist 6.2063
lhand -8.75395 1.44886
lfingers 7.12502
lthumb 17.1833 30.7091
rfemur 2.64774 -15.201 22.0657
rtibia 21.353
rfoot -19.3705 -42.5323
rtoes 2.77781
lfemur -14.9982 -15.9838 -13.3629
ltibia 26.4384
lfoot -12.2275 -7.80143
ltoes -11.6622
58
root -0.224016 17.9884 -22.869 0.581792 46.2378 -1.34042
lowerback 5.09484 9.50331 4.67729
upperback -1.24924 12.9787 -0.0846383
thorax -3.06418 6.37119 -3.49752
lowerneck 5.26774 19.9005 18.2435
upperneck 8.18921 28.8677 -13.5012
head 6.20346 14.5444 -4.62307
rclavicle 5.53802e-015 7.95139e-015
rhumerus -35.6926 -18.8968 -71.3658
rradius 26.2712
rwrist -6.88364
rhand -14.7371 -0.828869
rfingers 7.12502
rthumb 11.4183 -30.498
lclavicle 5.53802e-015 7.95139e-015
lhumerus -36.0077 1.30004 79.2674
lradius 29.7016
lwrist 5.92475
lhand -8.64614 1.26878
lfingers 7.12502
lthumb 17.287 30.5199
rfemur 2.65036 -15.1971 22.0809
rtibia 21.3353
rfoot -19.3515 -42.5384
rtoes 2.78109
lfemur -15.0026 -15.9373 -13.3483
ltibia 26.4379
lfoot -12.2435 -7.84247
ltoes -11.6392
